<!DOCTYPE svg PUBLIC "-//W3C//DTD SVG 20010904//EN" "http://www.w3.org/TR/2001/REC-SVG-20010904/DTD/svg10.dtd">
<svg version="1.0" xmlns="http://www.w3.org/2000/svg" width="479px" height="479px" viewBox="0 0 4790 4790" preserveAspectRatio="xMidYMid meet">
<g id="layer101" fill="#1a1a1a" stroke="none">
 <path d="M2230 4694 c-19 -2 -78 -9 -130 -15 -497 -58 -979 -296 -1343 -665 -918 -928 -881 -2425 83 -3309 164 -150 322 -260 505 -351 170 -84 194 -95 315 -134 421 -136 855 -155 1265 -54 55 13 106 24 114 24 7 0 77 25 155 56 295 117 532 263 747 460 396 363 645 834 725 1369 25 167 25 475 0 650 -55 391 -230 795 -481 1110 -77 97 -254 275 -350 352 -343 275 -773 454 -1195 498 -74 8 -367 14 -410 9z m338 -89 c2 -2 -9 -30 -24 -61 -23 -46 -76 -104 -245 -273 -223 -223 -328 -350 -411 -498 -51 -92 -98 -197 -98 -222 0 -9 -4 -21 -9 -26 -24 -26 -46 -173 -45 -305 1 -154 20 -249 84 -411 51 -126 129 -363 173 -524 59 -214 100 -390 232 -1017 97 -463 156 -600 334 -779 74 -74 212 -173 299 -214 23 -11 42 -23 42 -26 0 -8 -136 -34 -250 -49 -101 -13 -414 -12 -525 1 -107 13 -103 9 -179 164 -165 335 -245 736 -276 1380 -24 503 -90 870 -230 1287 -110 327 -281 665 -469 928 -33 46 -58 87 -55 92 3 4 37 34 77 66 354 289 814 468 1262 490 131 7 305 5 313 -3z m289 -41 c260 -53 546 -175 763 -323 45 -31 83 -58 83 -61 1 -3 -32 -36 -73 -75 -416 -390 -801 -950 -1003 -1460 -208 -527 -240 -972 -90 -1285 127 -266 453 -366 963 -294 58 8 112 17 120 21 8 3 31 7 50 9 73 8 506 122 605 160 23 9 -12 -46 -122 -194 -257 -343 -627 -612 -1041 -756 l-103 -36 -82 40 c-226 107 -400 266 -492 450 -59 119 -84 213 -185 689 -113 533 -152 701 -220 936 -35 120 -117 362 -158 465 -55 138 -75 241 -74 380 0 156 29 279 101 427 96 198 204 334 480 606 156 154 186 190 223 259 l43 79 50 -7 c27 -3 101 -17 162 -30z m330 -51 c-4 -3 -10 -3 -14 0 -3 4 0 7 7 7 7 0 10 -3 7 -7z m-1980 -190 c-4 -3 -7 0 -7 7 0 7 3 10 7 7 3 -4 3 -10 0 -14z m2654 -268 c86 -75 207 -202 198 -208 -2 -2 -35 -22 -72 -45 -110 -68 -203 -146 -358 -301 -221 -222 -349 -392 -437 -581 -82 -175 -118 -277 -167 -465 -51 -194 -66 -293 -72 -470 -9 -269 33 -412 156 -528 197 -184 457 -194 786 -29 230 115 392 249 489 404 82 132 169 373 211 582 12 59 14 15 5 -134 -14 -229 -54 -429 -126 -632 -40 -114 -135 -306 -153 -311 -9 -2 -83 -26 -166 -51 -822 -258 -1366 -236 -1541 61 -37 61 -81 198 -95 293 -18 128 -6 376 26 530 109 519 451 1154 884 1640 99 111 323 331 333 328 4 -2 48 -39 99 -83z m-2934 -87 c223 -298 430 -733 548 -1153 96 -345 144 -662 165 -1095 30 -624 120 -1060 287 -1389 29 -58 53 -106 53 -107 0 -6 -195 44 -280 71 l-76 25 -11 73 c-15 94 -73 231 -162 387 -104 182 -307 591 -379 765 -127 309 -212 605 -252 880 -6 39 -15 166 -20 284 -14 311 -39 481 -96 664 -30 93 -96 237 -120 262 -14 13 -15 20 -5 39 31 57 282 346 301 346 4 0 25 -24 47 -52z m3208 -205 c170 -208 327 -528 400 -812 60 -234 67 -342 36 -501 -85 -419 -228 -698 -432 -840 -439 -303 -780 -348 -1008 -131 -99 94 -137 198 -148 396 -18 360 139 922 343 1221 177 260 491 572 704 697 25 15 48 27 52 27 4 0 28 -26 53 -57z m-3568 -220 c62 -119 110 -278 137 -453 19 -124 24 -185 36 -425 13 -273 53 -496 136 -765 36 -114 110 -319 144 -395 86 -192 123 -271 206 -437 52 -105 106 -208 119 -229 46 -72 117 -204 150 -281 34 -76 70 -196 62 -204 -4 -5 -117 42 -152 63 -16 9 -18 14 -7 24 16 17 15 62 -2 102 -7 18 -50 82 -95 142 -95 127 -159 235 -237 401 -106 225 -210 512 -289 799 -79 289 -95 390 -130 835 -28 349 -71 580 -135 733 l-29 70 22 38 c12 21 25 39 28 39 3 0 20 -26 36 -57z m-67 -183 c12 -36 23 -72 25 -80 47 -215 64 -352 90 -705 27 -370 87 -640 238 -1080 122 -354 272 -648 450 -884 60 -80 77 -122 57 -146 -7 -8 -16 -15 -20 -15 -17 0 -185 109 -290 188 -477 359 -783 896 -860 1508 -16 127 -14 408 5 547 30 227 108 483 207 682 57 113 55 113 98 -15z m3877 -2087 c-4 -3 -7 0 -7 7 0 7 3 10 7 7 3 -4 3 -10 0 -14z m-2980 -470 c-4 -3 -7 0 -7 7 0 7 3 10 7 7 3 -4 3 -10 0 -14z m-320 -250 c-4 -3 -7 0 -7 7 0 7 3 10 7 7 3 -4 3 -10 0 -14z m53 -27 c0 -2 -7 -7 -16 -10 -8 -3 -12 -2 -9 4 6 10 25 14 25 6z m1747 -333 c-4 -3 -10 -3 -14 0 -3 4 0 7 7 7 7 0 10 -3 7 -7z"/>
 <path d="M3839 2942 c-24 -16 -90 -74 -145 -129 -180 -179 -294 -337 -352 -491 -38 -98 -37 -231 1 -322 55 -130 138 -248 203 -286 82 -48 173 -21 249 74 98 122 221 427 243 602 29 223 24 419 -13 505 -33 80 -105 98 -186 47z m141 -12 c38 -38 55 -123 54 -280 -1 -199 -18 -320 -63 -454 -109 -321 -225 -486 -341 -486 -78 0 -167 90 -241 245 -54 111 -66 176 -51 267 29 166 137 337 351 555 160 164 239 205 291 153z"/>
 </g>

</svg>